# xmcd
#
# Track frame offsets: 
#        150
#        11417
#        26674
#        42999
#        58416
#        77464
#        100875
#        116332
#        131099
#        145800
#        170153
#        184022
#        198147
#        212735
#        250453
#        266518
#        285806
#
# Disc length: 4088 seconds
#
# Revision: 1
# Processed by: cddbd v1.5.2PL0 Copyright (c) Steve Scherf et al.
# Submitted via: ExactAudioCopy v0.99pb5
#
DISCID=ee0ff611
DTITLE=James Last - Inner City Blues
DYEAR=2003
DGENRE=Instrumental
TTITLE0=Spanish Eyes
TTITLE1=Can't Move No Mountains
TTITLE2=Theme from "Prisoner of Second Avenue"
TTITLE3=Fly me to fhe Moon
TTITLE4=The Air that I breathe
TTITLE5=Was ich dir sagen will
TTITLE6=Lara's Theme
TTITLE7=For better, for worse
TTITLE8=Ballade Pour Adeline
TTITLE9=Tenderly (Try a little Tenderness)
TTITLE10=Lover's Dream
TTITLE11=Inner City Blues
TTITLE12=Fahrt ans Meer
TTITLE13=Mac Arthur Park
TTITLE14=Morgens um sieben ist die Welt noch in Ordnung
TTITLE15=Moon River
TTITLE16=La Vie en Rose
EXTD=
EXTT0=
EXTT1=
EXTT2=
EXTT3=
EXTT4=
EXTT5=
EXTT6=
EXTT7=
EXTT8=
EXTT9=
EXTT10=
EXTT11=
EXTT12=
EXTT13=
EXTT14=
EXTT15=
EXTT16=
PLAYORDER=
